<?xml version="1.0" encoding="UTF-8"?> <svg xmlns="http://www.w3.org/2000/svg" xmlns:xlink="http://www.w3.org/1999/xlink" width="45pt" height="45pt" viewBox="0 0 45 45" version="1.1"><g id="surface1"><path style=" stroke:none;fill-rule:nonzero;fill:#a4bccc;fill-opacity:1;" d="M 39.667969 11.257812 C 39.121094 11.257812 38.578125 11.339844 38.054688 11.507812 C 38.105469 11.113281 38.128906 10.71875 38.132812 10.320312 C 38.035156 4.523438 33.253906 -0.0976562 27.457031 0 C 23.230469 0.0742188 19.453125 2.675781 17.886719 6.605469 C 14.851562 4.722656 10.867188 5.660156 8.988281 8.691406 C 8.375 9.679688 8.039062 10.8125 8.019531 11.976562 C 7.199219 11.503906 6.273438 11.257812 5.332031 11.257812 C 2.433594 11.257812 0.0820312 13.609375 0.0820312 16.507812 C 0.0820312 19.40625 2.433594 21.753906 5.332031 21.753906 C 5.746094 21.753906 6.082031 21.421875 6.082031 21.007812 C 6.082031 20.59375 5.746094 20.257812 5.332031 20.257812 C 3.261719 20.222656 1.609375 18.515625 1.644531 16.445312 C 1.675781 14.375 3.382812 12.726562 5.453125 12.757812 C 6.714844 12.78125 7.878906 13.433594 8.554688 14.496094 C 8.78125 14.839844 9.246094 14.9375 9.59375 14.710938 C 9.894531 14.515625 10.011719 14.136719 9.878906 13.804688 C 9.640625 13.234375 9.519531 12.625 9.515625 12.007812 C 9.546875 9.289062 11.769531 7.109375 14.484375 7.132812 C 15.695312 7.140625 16.863281 7.582031 17.773438 8.382812 C 18.085938 8.652344 18.558594 8.621094 18.832031 8.308594 C 18.90625 8.226562 18.960938 8.125 18.988281 8.015625 C 20.363281 3.242188 25.34375 0.484375 30.117188 1.855469 C 33.910156 2.945312 36.546875 6.378906 36.625 10.320312 C 36.621094 11.105469 36.511719 11.890625 36.300781 12.644531 C 36.1875 13.042969 36.421875 13.457031 36.820312 13.570312 C 37.039062 13.628906 37.269531 13.589844 37.453125 13.460938 C 38.101562 13.003906 38.875 12.757812 39.667969 12.757812 C 41.738281 12.757812 43.417969 14.4375 43.417969 16.507812 C 43.417969 18.578125 41.738281 20.257812 39.667969 20.257812 C 39.253906 20.257812 38.917969 20.589844 38.917969 21.003906 C 38.917969 21.421875 39.253906 21.753906 39.667969 21.753906 C 42.566406 21.753906 44.917969 19.40625 44.917969 16.507812 C 44.917969 13.609375 42.566406 11.257812 39.667969 11.257812 Z M 39.667969 11.257812 "></path><path style=" stroke:none;fill-rule:nonzero;fill:#a4bccc;fill-opacity:1;" d="M 35.246094 28.503906 L 9.75 28.503906 C 8.507812 28.503906 7.5 29.511719 7.5 30.753906 L 7.5 33.753906 C 7.5 34.996094 8.507812 36.003906 9.75 36.003906 L 35.246094 36.003906 C 36.488281 36.003906 37.496094 34.996094 37.496094 33.753906 L 37.496094 30.753906 C 37.496094 29.511719 36.488281 28.503906 35.246094 28.503906 Z M 35.996094 33.753906 C 35.996094 34.167969 35.660156 34.503906 35.246094 34.503906 L 9.75 34.503906 C 9.335938 34.503906 9 34.167969 9 33.753906 L 9 30.753906 C 9 30.339844 9.335938 30.003906 9.75 30.003906 L 35.246094 30.003906 C 35.660156 30.003906 35.996094 30.339844 35.996094 30.753906 Z M 35.996094 33.753906 "></path><path style=" stroke:none;fill-rule:nonzero;fill:#a4bccc;fill-opacity:1;" d="M 33.164062 30.800781 C 32.367188 30.804688 31.722656 31.453125 31.722656 32.253906 C 31.722656 33.058594 32.378906 33.707031 33.183594 33.707031 C 33.984375 33.703125 34.632812 33.046875 34.628906 32.242188 C 34.621094 31.441406 33.96875 30.796875 33.164062 30.800781 Z M 33.183594 32.300781 C 33.160156 32.300781 33.144531 32.277344 33.144531 32.253906 L 33.183594 32.207031 Z M 33.183594 32.300781 "></path><path style=" stroke:none;fill-rule:nonzero;fill:#a4bccc;fill-opacity:1;" d="M 25.347656 31.503906 L 11.101562 31.503906 C 10.6875 31.503906 10.351562 31.839844 10.351562 32.253906 C 10.351562 32.667969 10.6875 33.003906 11.101562 33.003906 L 25.347656 33.003906 C 25.761719 33.003906 26.097656 32.667969 26.097656 32.253906 C 26.097656 31.839844 25.761719 31.503906 25.347656 31.503906 Z M 25.347656 31.503906 "></path><path style=" stroke:none;fill-rule:nonzero;fill:#a4bccc;fill-opacity:1;" d="M 29.976562 31.503906 L 27.984375 31.503906 C 27.570312 31.503906 27.234375 31.839844 27.234375 32.253906 C 27.234375 32.667969 27.570312 33.003906 27.984375 33.003906 L 29.976562 33.003906 C 30.390625 33.003906 30.726562 32.667969 30.726562 32.253906 C 30.726562 31.839844 30.390625 31.503906 29.976562 31.503906 Z M 29.976562 31.503906 "></path><path style=" stroke:none;fill-rule:nonzero;fill:#a4bccc;fill-opacity:1;" d="M 35.246094 37.5 L 9.75 37.5 C 8.507812 37.5 7.5 38.507812 7.5 39.75 L 7.5 42.75 C 7.5 43.992188 8.507812 45 9.75 45 L 35.246094 45 C 36.488281 45 37.496094 43.992188 37.496094 42.75 L 37.496094 39.75 C 37.496094 38.507812 36.488281 37.5 35.246094 37.5 Z M 35.996094 42.75 C 35.996094 43.164062 35.660156 43.5 35.246094 43.5 L 9.75 43.5 C 9.335938 43.5 9 43.164062 9 42.75 L 9 39.75 C 9 39.335938 9.335938 39 9.75 39 L 35.246094 39 C 35.660156 39 35.996094 39.335938 35.996094 39.75 Z M 35.996094 42.75 "></path><path style=" stroke:none;fill-rule:nonzero;fill:#a4bccc;fill-opacity:1;" d="M 33.164062 39.796875 C 32.367188 39.804688 31.722656 40.453125 31.722656 41.25 C 31.722656 42.054688 32.378906 42.707031 33.183594 42.703125 C 33.984375 42.699219 34.632812 42.042969 34.628906 41.242188 C 34.621094 40.4375 33.96875 39.792969 33.164062 39.796875 Z M 33.183594 41.296875 C 33.160156 41.296875 33.144531 41.273438 33.144531 41.25 L 33.183594 41.203125 Z M 33.183594 41.296875 "></path><path style=" stroke:none;fill-rule:nonzero;fill:#a4bccc;fill-opacity:1;" d="M 25.347656 40.5 L 11.101562 40.5 C 10.6875 40.5 10.351562 40.835938 10.351562 41.25 C 10.351562 41.664062 10.6875 42 11.101562 42 L 25.347656 42 C 25.761719 42 26.097656 41.664062 26.097656 41.25 C 26.097656 40.835938 25.761719 40.5 25.347656 40.5 Z M 25.347656 40.5 "></path><path style=" stroke:none;fill-rule:nonzero;fill:#a4bccc;fill-opacity:1;" d="M 29.976562 40.5 L 27.984375 40.5 C 27.570312 40.5 27.234375 40.835938 27.234375 41.25 C 27.234375 41.664062 27.570312 42 27.984375 42 L 29.976562 42 C 30.390625 42 30.726562 41.664062 30.726562 41.25 C 30.726562 40.835938 30.390625 40.5 29.976562 40.5 Z M 29.976562 40.5 "></path><path style=" stroke:none;fill-rule:nonzero;fill:#a4bccc;fill-opacity:1;" d="M 35.246094 19.507812 L 9.75 19.507812 C 8.507812 19.507812 7.5 20.511719 7.5 21.753906 L 7.5 24.753906 C 7.5 25.996094 8.507812 27.003906 9.75 27.003906 L 35.246094 27.003906 C 36.488281 27.003906 37.496094 25.996094 37.496094 24.753906 L 37.496094 21.753906 C 37.496094 20.511719 36.488281 19.507812 35.246094 19.507812 Z M 35.996094 24.753906 C 35.996094 25.167969 35.660156 25.503906 35.246094 25.503906 L 9.75 25.503906 C 9.335938 25.503906 9 25.167969 9 24.753906 L 9 21.753906 C 9 21.339844 9.335938 21.007812 9.75 21.007812 L 35.246094 21.007812 C 35.660156 21.007812 35.996094 21.339844 35.996094 21.753906 Z M 35.996094 24.753906 "></path><path style=" stroke:none;fill-rule:nonzero;fill:#a4bccc;fill-opacity:1;" d="M 34.390625 23.050781 C 34.246094 22.253906 33.484375 21.726562 32.6875 21.871094 C 32.308594 21.9375 31.976562 22.152344 31.753906 22.464844 C 31.53125 22.777344 31.445312 23.167969 31.511719 23.546875 C 31.636719 24.246094 32.246094 24.753906 32.953125 24.753906 C 33.035156 24.753906 33.117188 24.75 33.199219 24.734375 C 33.582031 24.671875 33.925781 24.453125 34.148438 24.136719 C 34.375 23.820312 34.460938 23.429688 34.390625 23.050781 Z M 32.914062 23.316406 L 32.949219 23.253906 L 32.953125 23.347656 C 32.917969 23.347656 32.917969 23.332031 32.914062 23.316406 Z M 32.914062 23.316406 "></path><path style=" stroke:none;fill-rule:nonzero;fill:#a4bccc;fill-opacity:1;" d="M 25.199219 22.503906 L 10.949219 22.503906 C 10.535156 22.503906 10.199219 22.839844 10.199219 23.253906 C 10.199219 23.667969 10.535156 24.003906 10.949219 24.003906 L 25.199219 24.003906 C 25.613281 24.003906 25.945312 23.667969 25.945312 23.253906 C 25.945312 22.839844 25.613281 22.503906 25.199219 22.503906 Z M 25.199219 22.503906 "></path><path style=" stroke:none;fill-rule:nonzero;fill:#a4bccc;fill-opacity:1;" d="M 29.5 22.503906 L 27.503906 22.503906 C 27.089844 22.503906 26.753906 22.839844 26.753906 23.253906 C 26.753906 23.667969 27.089844 24.003906 27.503906 24.003906 L 29.5 24.003906 C 29.914062 24.003906 30.25 23.667969 30.25 23.253906 C 30.25 22.839844 29.914062 22.503906 29.5 22.503906 Z M 29.5 22.503906 "></path><path style=" stroke:none;fill-rule:nonzero;fill:#a4bccc;fill-opacity:1;" d="M 19.277344 12.226562 L 17.03125 9.976562 C 16.738281 9.6875 16.261719 9.6875 15.96875 9.976562 L 13.71875 12.226562 C 13.433594 12.527344 13.441406 13 13.738281 13.289062 C 14.027344 13.570312 14.488281 13.570312 14.78125 13.289062 L 15.75 12.320312 L 15.75 17.257812 C 15.75 17.671875 16.085938 18.007812 16.5 18.007812 C 16.914062 18.007812 17.25 17.671875 17.25 17.257812 L 17.25 12.320312 L 18.21875 13.289062 C 18.515625 13.574219 18.992188 13.566406 19.277344 13.269531 C 19.558594 12.980469 19.558594 12.519531 19.277344 12.226562 Z M 19.277344 12.226562 "></path><path style=" stroke:none;fill-rule:nonzero;fill:#a4bccc;fill-opacity:1;" d="M 31.257812 14.476562 C 30.96875 14.195312 30.507812 14.195312 30.214844 14.476562 L 29.246094 15.445312 L 29.246094 10.507812 C 29.246094 10.09375 28.910156 9.757812 28.496094 9.757812 C 28.082031 9.757812 27.746094 10.09375 27.746094 10.507812 L 27.746094 15.445312 L 26.777344 14.476562 C 26.480469 14.191406 26.003906 14.199219 25.71875 14.496094 C 25.4375 14.785156 25.4375 15.246094 25.71875 15.539062 L 27.964844 17.785156 C 28.257812 18.078125 28.734375 18.078125 29.027344 17.785156 L 31.277344 15.539062 C 31.5625 15.238281 31.554688 14.765625 31.257812 14.476562 Z M 31.257812 14.476562 "></path></g></svg> 