<?xml version="1.0" encoding="UTF-8"?> <svg xmlns="http://www.w3.org/2000/svg" xmlns:xlink="http://www.w3.org/1999/xlink" width="45pt" height="22pt" viewBox="0 0 45 22" version="1.1"><g id="surface1"><path style=" stroke:none;fill-rule:nonzero;fill:#a4bccc;fill-opacity:1;" d="M 1.550781 20.394531 L 1.136719 21.632812 L 0.492188 21.632812 L 2.011719 17.503906 L 2.652344 17.503906 L 4.171875 21.632812 L 3.527344 21.632812 L 3.089844 20.394531 Z M 2.332031 18.144531 L 1.734375 19.914062 L 2.953125 19.914062 Z M 2.332031 18.144531 "></path><path style=" stroke:none;fill-rule:nonzero;fill:#a4bccc;fill-opacity:1;" d="M 8.605469 17.503906 L 8.605469 20.210938 C 8.605469 20.714844 8.492188 21.035156 8.238281 21.3125 C 7.941406 21.585938 7.503906 21.746094 6.976562 21.746094 C 6.445312 21.746094 6.007812 21.609375 5.710938 21.3125 C 5.457031 21.058594 5.34375 20.738281 5.34375 20.210938 L 5.34375 17.503906 L 5.941406 17.503906 L 5.941406 20.28125 C 5.941406 20.851562 6.332031 21.195312 6.976562 21.195312 C 7.617188 21.195312 8.007812 20.851562 8.007812 20.28125 L 8.007812 17.503906 Z M 8.605469 17.503906 "></path><path style=" stroke:none;fill-rule:nonzero;fill:#a4bccc;fill-opacity:1;" d="M 11.777344 21.632812 L 11.179688 21.632812 L 11.179688 18.007812 L 9.894531 18.007812 L 9.894531 17.503906 L 13.066406 17.503906 L 13.066406 18.007812 L 11.777344 18.007812 Z M 11.777344 21.632812 "></path><path style=" stroke:none;fill-rule:nonzero;fill:#a4bccc;fill-opacity:1;" d="M 18.054688 19.589844 C 18.054688 20.828125 17.203125 21.726562 16.054688 21.726562 C 14.882812 21.726562 14.054688 20.828125 14.054688 19.566406 C 14.054688 18.304688 14.882812 17.410156 16.054688 17.410156 C 17.226562 17.410156 18.054688 18.304688 18.054688 19.589844 Z M 14.652344 19.566406 C 14.652344 20.554688 15.226562 21.21875 16.054688 21.21875 C 16.878906 21.21875 17.457031 20.554688 17.457031 19.589844 C 17.457031 18.582031 16.902344 17.917969 16.054688 17.917969 C 15.226562 17.917969 14.652344 18.605469 14.652344 19.566406 Z M 14.652344 19.566406 "></path><path style=" stroke:none;fill-rule:nonzero;fill:#a4bccc;fill-opacity:1;" d="M 21.363281 21.632812 L 20.398438 19.15625 C 20.28125 18.835938 20.191406 18.558594 20.121094 18.304688 C 20.144531 18.605469 20.144531 18.949219 20.144531 19.203125 L 20.144531 21.632812 L 19.59375 21.632812 L 19.59375 17.503906 L 20.328125 17.503906 L 21.363281 20.140625 C 21.5 20.507812 21.5 20.554688 21.613281 20.875 C 21.730469 20.507812 21.800781 20.371094 21.867188 20.164062 L 22.902344 17.527344 L 23.636719 17.527344 L 23.636719 21.632812 L 23.085938 21.632812 L 23.085938 19.203125 C 23.085938 18.925781 23.109375 18.628906 23.109375 18.304688 C 23.015625 18.652344 22.925781 18.878906 22.808594 19.203125 L 21.867188 21.632812 Z M 21.363281 21.632812 "></path><path style=" stroke:none;fill-rule:nonzero;fill:#a4bccc;fill-opacity:1;" d="M 25.9375 20.394531 L 25.523438 21.632812 L 24.902344 21.632812 L 26.417969 17.503906 L 27.0625 17.503906 L 28.578125 21.632812 L 27.933594 21.632812 L 27.5 20.394531 Z M 26.71875 18.144531 L 26.121094 19.914062 L 27.339844 19.914062 Z M 26.71875 18.144531 "></path><path style=" stroke:none;fill-rule:nonzero;fill:#a4bccc;fill-opacity:1;" d="M 30.921875 21.632812 L 30.324219 21.632812 L 30.324219 18.007812 L 29.039062 18.007812 L 29.039062 17.503906 L 32.210938 17.503906 L 32.210938 18.007812 L 30.921875 18.007812 Z M 30.921875 21.632812 "></path><path style=" stroke:none;fill-rule:nonzero;fill:#a4bccc;fill-opacity:1;" d="M 34.117188 21.632812 L 33.519531 21.632812 L 33.519531 17.503906 L 34.117188 17.503906 Z M 34.117188 21.632812 "></path><path style=" stroke:none;fill-rule:nonzero;fill:#a4bccc;fill-opacity:1;" d="M 39.65625 19.589844 C 39.65625 20.828125 38.804688 21.726562 37.65625 21.726562 C 36.484375 21.726562 35.65625 20.828125 35.65625 19.566406 C 35.65625 18.304688 36.484375 17.410156 37.65625 17.410156 C 38.828125 17.410156 39.65625 18.304688 39.65625 19.589844 Z M 36.253906 19.566406 C 36.253906 20.554688 36.828125 21.21875 37.65625 21.21875 C 38.484375 21.21875 39.058594 20.554688 39.058594 19.589844 C 39.058594 18.582031 38.507812 17.917969 37.65625 17.917969 C 36.828125 17.917969 36.253906 18.605469 36.253906 19.566406 Z M 36.253906 19.566406 "></path><path style=" stroke:none;fill-rule:nonzero;fill:#a4bccc;fill-opacity:1;" d="M 43.863281 21.632812 L 42.160156 19.019531 C 41.957031 18.695312 41.839844 18.488281 41.726562 18.304688 C 41.75 18.488281 41.75 18.878906 41.75 19.085938 L 41.75 21.632812 L 41.195312 21.632812 L 41.195312 17.503906 L 41.792969 17.503906 L 43.425781 20.027344 C 43.585938 20.257812 43.792969 20.625 43.910156 20.875 C 43.886719 20.648438 43.886719 20.394531 43.886719 20.097656 L 43.886719 17.527344 L 44.4375 17.527344 L 44.4375 21.632812 Z M 43.863281 21.632812 "></path><path style=" stroke:none;fill-rule:nonzero;fill:#a4bccc;fill-opacity:1;" d="M 0.5625 14.84375 L 44.507812 14.84375 L 44.507812 15.210938 L 0.5625 15.210938 Z M 0.5625 14.84375 "></path><path style=" stroke:none;fill-rule:nonzero;fill:#a4bccc;fill-opacity:1;" d="M 22.695312 10.988281 C 22.695312 10.714844 22.417969 10.714844 22.417969 10.714844 L 16.144531 10.714844 L 16.144531 2.132812 L 22.417969 2.132812 C 22.695312 2.132812 22.695312 1.859375 22.695312 1.859375 L 22.695312 0.710938 C 22.695312 0.710938 22.695312 0.4375 22.417969 0.4375 L 13.871094 0.4375 C 13.617188 0.4375 13.59375 0.710938 13.59375 0.710938 L 13.59375 12.179688 C 13.59375 12.179688 13.59375 12.457031 13.871094 12.457031 L 22.417969 12.457031 C 22.695312 12.457031 22.695312 12.203125 22.695312 12.179688 Z M 22.695312 10.988281 "></path><path style=" stroke:none;fill-rule:nonzero;fill:#a4bccc;fill-opacity:1;" d="M 22.417969 5.414062 L 17.203125 5.414062 L 17.203125 7.089844 L 22.417969 7.089844 C 22.695312 7.089844 22.695312 6.8125 22.695312 6.8125 L 22.695312 5.667969 C 22.695312 5.644531 22.695312 5.414062 22.417969 5.414062 "></path><path style=" stroke:none;fill-rule:nonzero;fill:#a4bccc;fill-opacity:1;" d="M 34.507812 1.859375 L 34.507812 0.710938 C 34.507812 0.710938 34.507812 0.4375 34.234375 0.4375 C 33.957031 0.4375 24.578125 0.4375 24.328125 0.4375 C 24.050781 0.4375 24.050781 0.710938 24.050781 0.710938 L 24.050781 1.859375 C 24.050781 1.859375 24.050781 2.132812 24.328125 2.132812 L 28.003906 2.132812 L 28.003906 12.179688 C 28.003906 12.457031 28.257812 12.457031 28.257812 12.457031 L 30.257812 12.457031 C 30.257812 12.457031 30.53125 12.457031 30.53125 12.179688 L 30.53125 2.132812 L 34.210938 2.132812 C 34.257812 2.132812 34.507812 2.132812 34.507812 1.859375 "></path><path style=" stroke:none;fill-rule:nonzero;fill:#a4bccc;fill-opacity:1;" d="M 10.949219 12.160156 L 10.949219 0.710938 C 10.949219 0.710938 10.949219 0.4375 10.675781 0.4375 L 9.59375 0.4375 C 9.320312 0.4375 9.320312 0.710938 9.320312 0.710938 C 9.320312 0.78125 9.320312 8.28125 9.320312 8.28125 C 9.320312 8.28125 2.5625 0.941406 2.378906 0.710938 C 2.171875 0.4375 1.941406 0.4375 1.894531 0.4375 C 1.757812 0.4375 1.023438 0.4375 0.839844 0.4375 C 0.539062 0.4375 0.5625 0.6875 0.5625 0.710938 L 0.5625 12.179688 C 0.5625 12.179688 0.5625 12.457031 0.839844 12.457031 C 0.953125 12.457031 1.78125 12.457031 1.894531 12.457031 C 2.171875 12.457031 2.171875 12.179688 2.171875 12.179688 C 2.171875 12.089844 2.171875 4.65625 2.171875 4.65625 C 2.171875 4.65625 9.066406 12.089844 9.136719 12.179688 C 9.386719 12.480469 9.59375 12.457031 9.59375 12.457031 C 9.710938 12.457031 10.539062 12.457031 10.675781 12.457031 C 10.949219 12.433594 10.949219 12.203125 10.949219 12.160156 "></path><path style=" stroke:none;fill-rule:nonzero;fill:rgb(80%,3.529412%,20.784314%);fill-opacity:1;" d="M 43.585938 2.226562 C 43.585938 2.226562 43.335938 1.996094 43.128906 2.25 L 35.542969 11.285156 C 35.542969 11.285156 35.335938 11.515625 35.613281 11.746094 L 36.371094 12.386719 C 36.371094 12.386719 36.625 12.617188 36.828125 12.363281 L 44.414062 3.328125 C 44.414062 3.328125 44.621094 3.097656 44.34375 2.867188 Z M 43.585938 2.226562 "></path><path style=" stroke:none;fill-rule:nonzero;fill:rgb(80%,3.529412%,20.784314%);fill-opacity:1;" d="M 35.542969 3.441406 C 35.542969 3.441406 35.3125 3.648438 35.519531 3.878906 L 42.53125 12.320312 C 42.53125 12.320312 42.738281 12.546875 42.964844 12.363281 L 44.4375 11.125 C 44.4375 11.125 44.667969 10.917969 44.460938 10.691406 L 37.425781 2.25 C 37.425781 2.25 37.21875 2.019531 36.992188 2.203125 Z M 35.542969 3.441406 "></path></g></svg> 