<?xml version="1.0" encoding="UTF-8"?>
<svg width="99px" height="24px" viewBox="0 0 99 24" version="1.1" xmlns="http://www.w3.org/2000/svg" xmlns:xlink="http://www.w3.org/1999/xlink">
    <!-- Generator: sketchtool 52.4 (67378) - http://www.bohemiancoding.com/sketch -->
    <title>12F20A7D-4D05-4D83-85F3-8FA81513F664</title>
    <desc>Created with sketchtool.</desc>
    <g id="Page-1" stroke="none" stroke-width="1" fill="none" fill-rule="evenodd" opacity="0.4">
        <g id="Home" transform="translate(-368.000000, -793.000000)" fill="#FFFFFF" fill-rule="nonzero">
            <g id="walmart" transform="translate(368.000000, 793.000000)">
                <g id="Group">
                    <path d="M0.494,5.046 C0.494,5.046 2.924,15.029 3.312,16.65 C3.765,18.541 4.581,19.237 6.932,18.768 L8.45,12.578 C8.835,11.041 9.093,9.944 9.34,8.38 L9.383,8.38 C9.557,9.96 9.804,11.045 10.121,12.583 C10.121,12.583 10.739,15.393 11.055,16.869 C11.372,18.345 12.255,19.275 14.559,18.769 L18.175,5.047 L15.255,5.047 L14.021,10.979 C13.689,12.706 13.388,14.055 13.155,15.635 L13.115,15.635 C12.903,14.071 12.635,12.775 12.297,11.093 L11.012,5.047 L7.97,5.047 L6.595,10.94 C6.205,12.73 5.841,14.177 5.61,15.703 L5.568,15.703 C5.29446935,14.0355836 4.99576861,12.3723939 4.672,10.714 C4.672,10.714 3.855,6.5 3.57,5.047 L0.494,5.047 L0.494,5.046 Z M28.325,5.046 L28.325,18.767 L31.105,18.767 L31.105,5.045 L28.325,5.045 L28.325,5.046 Z M67.473,5.046 L67.473,15.168 C67.473,16.564 67.735,17.542 68.296,18.139 C68.786,18.662 69.592,19 70.558,19 C71.38,19 72.188,18.844 72.57,18.701 L72.534,16.524 C72.251,16.594 71.924,16.65 71.478,16.65 C70.531,16.65 70.214,16.042 70.214,14.789 L70.214,10.916 L72.634,10.916 L72.634,8.29 L70.214,8.29 L70.214,5.046 L67.473,5.046 Z M22.113,8.226 C20.386,8.226 19.015,8.713 18.267,9.146 L18.814,11.024 C19.498,10.591 20.587,10.234 21.619,10.234 C23.326,10.229 23.605,11.201 23.605,11.824 L23.605,11.972 C19.885,11.967 17.535,13.257 17.535,15.888 C17.535,17.495 18.731,19 20.811,19 C22.091,19 23.163,18.488 23.805,17.668 L23.868,17.668 C23.868,17.668 24.293,19.449 26.634,18.768 C26.511,18.026 26.472,17.236 26.472,16.284 L26.472,12.618 C26.472,10.282 25.476,8.227 22.113,8.227 L22.113,8.226 Z M38.741,8.226 C37.001,8.226 36.22,9.11 35.746,9.86 L35.704,9.86 L35.704,8.46 L33.052,8.46 L33.052,18.768 L35.846,18.768 L35.846,12.722 C35.846,12.439 35.878,12.139 35.977,11.879 C36.209,11.269 36.774,10.558 37.675,10.558 C38.803,10.558 39.331,11.514 39.331,12.893 L39.331,18.768 L42.122,18.768 L42.122,12.649 C42.122,12.379 42.159,12.053 42.238,11.814 C42.468,11.121 43.077,10.558 43.915,10.558 C45.058,10.558 45.607,11.497 45.607,13.12 L45.607,18.768 L48.4,18.768 L48.4,12.696 C48.4,9.494 46.778,8.226 44.948,8.226 C44.137,8.226 43.497,8.431 42.918,8.786 C42.432,9.086 41.997,9.511 41.616,10.071 L41.575,10.071 C41.132,8.96 40.093,8.227 38.74,8.227 L38.741,8.226 Z M54.085,8.226 C52.358,8.226 50.987,8.713 50.239,9.146 L50.787,11.024 C51.47,10.591 52.56,10.234 53.591,10.234 C55.297,10.229 55.577,11.201 55.577,11.824 L55.577,11.972 C51.857,11.967 49.507,13.257 49.507,15.888 C49.507,17.495 50.704,19 52.785,19 C54.065,19 55.135,18.488 55.777,17.668 L55.84,17.668 C55.84,17.668 56.265,19.449 58.607,18.768 C58.484,18.026 58.444,17.236 58.444,16.284 L58.444,12.618 C58.444,10.282 57.449,8.227 54.085,8.227 L54.085,8.226 Z M65.69,8.226 C64.62,8.226 63.402,8.919 62.891,10.403 L62.813,10.403 L62.813,8.46 L60.298,8.46 L60.298,18.769 L63.165,18.769 L63.165,13.49 C63.165,13.205 63.182,12.957 63.227,12.73 C63.44,11.624 64.283,10.917 65.494,10.917 C65.826,10.917 66.064,10.953 66.322,10.99 L66.322,8.29 C66.1144651,8.24471453 65.9023906,8.22357419 65.69,8.227 L65.69,8.226 Z M23.695,13.8 L23.695,15.086 C23.695,15.276 23.679,15.473 23.626,15.644 C23.411,16.358 22.673,16.962 21.75,16.962 C20.981,16.962 20.37,16.524 20.37,15.599 C20.37,14.182 21.925,13.791 23.695,13.8 Z M55.667,13.8 L55.667,15.086 C55.667,15.276 55.65,15.473 55.598,15.644 C55.383,16.358 54.645,16.962 53.723,16.962 C52.953,16.962 52.342,16.524 52.342,15.599 C52.342,14.182 53.897,13.791 55.667,13.8 Z M87.663,0.083 C86.766,0.083 86.053,0.586 86.053,1.197 L86.598,7.383 C86.658,7.756 87.113,8.043 87.664,8.043 C88.215,8.043 88.669,7.755 88.731,7.383 L89.278,1.197 C89.278,0.586 88.563,0.083 87.664,0.083 L87.663,0.083 Z M78.783,5.045 C78.317,5.057 77.787,5.41 77.451,5.995 C77.001,6.775 77.081,7.645 77.607,7.95 L83.223,10.572 C83.573,10.703 84.05,10.453 84.326,9.976 C84.603,9.496 84.582,8.958 84.29,8.719 L79.218,5.153 C79.0857813,5.07755105 78.9351316,5.0404947 78.783,5.046 L78.783,5.045 Z M96.544,5.045 C96.3917561,5.03963779 96.2410568,5.0770528 96.109,5.153 L91.037,8.719 C90.747,8.958 90.725,9.497 91.001,9.976 C91.278,10.453 91.753,10.703 92.104,10.572 L97.722,7.95 C98.252,7.645 98.327,6.774 97.88,5.995 C97.542,5.41 97.012,5.057 96.546,5.045 L96.544,5.045 Z M83.433,13.207 C83.3614197,13.2053265 83.2901683,13.2172017 83.223,13.242 L77.608,15.861 C77.081,16.168 77.001,17.039 77.452,17.819 C77.9,18.596 78.692,18.966 79.218,18.661 L84.291,15.097 C84.583,14.855 84.604,14.317 84.327,13.837 L84.329,13.839 C84.105,13.449 83.748,13.211 83.433,13.207 Z M91.896,13.207 C91.582,13.211 91.225,13.449 91,13.839 L91.002,13.838 C90.726,14.317 90.748,14.855 91.038,15.098 L96.111,18.661 C96.637,18.966 97.428,18.596 97.879,17.819 C98.327,17.039 98.251,16.168 97.722,15.861 L92.105,13.242 C92.0381519,13.2173027 91.9672471,13.2054287 91.896,13.207 Z M87.662,15.771 C87.112,15.771 86.658,16.058 86.598,16.429 L86.053,22.615 C86.053,23.228 86.767,23.729 87.664,23.729 C88.564,23.729 89.278,23.228 89.278,22.615 L88.731,16.429 C88.67,16.058 88.216,15.772 87.665,15.771 L87.662,15.771 Z" id="Shape"></path>
                </g>
            </g>
        </g>
    </g>
</svg>