<?xml version="1.0" standalone="no"?>
<!DOCTYPE svg PUBLIC "-//W3C//DTD SVG 20010904//EN"
 "http://www.w3.org/TR/2001/REC-SVG-20010904/DTD/svg10.dtd">
<svg version="1.0" xmlns="http://www.w3.org/2000/svg"
 width="600.000000pt" height="450.000000pt" viewBox="0 0 600.000000 450.000000"
 preserveAspectRatio="xMidYMid meet">

<g transform="translate(0.000000,450.000000) scale(0.100000,-0.100000)"
 stroke="none" class="calendly">
<path d="M2466 4028 c-9 -12 -16 -35 -16 -50 l0 -28 -168 0 c-159 0 -171 -1
-218 -25 -54 -27 -84 -60 -102 -114 -9 -25 -12 -261 -12 -890 0 -812 1 -858
19 -896 10 -22 31 -52 47 -67 65 -61 23 -58 959 -58 936 0 894 -3 959 58 16
15 37 45 47 67 18 38 19 84 19 896 0 629 -3 865 -12 890 -18 54 -48 87 -102
114 -47 24 -59 25 -218 25 l-168 0 0 28 c0 40 -26 72 -59 72 -35 0 -48 -15
-53 -60 l-3 -35 -410 0 -410 0 -3 35 c-2 19 -8 41 -14 47 -17 21 -65 16 -82
-9z m-16 -273 c0 -72 3 -88 20 -105 24 -24 47 -25 72 -3 15 13 18 32 18 105
l0 88 415 0 415 0 0 -87 c0 -66 4 -91 17 -105 21 -24 48 -23 73 2 17 17 20 33
20 105 l0 85 166 0 166 0 29 -29 29 -29 0 -852 c0 -565 -3 -858 -10 -871 -27
-50 -7 -49 -905 -49 -898 0 -878 -1 -905 49 -7 13 -10 306 -10 871 l0 852 29
29 29 29 166 0 166 0 0 -85z"/>
<path d="M2909 3227 c-69 -29 -107 -55 -149 -104 -89 -100 -111 -248 -56 -370
51 -113 162 -196 285 -213 97 -13 238 24 280 73 23 29 -8 28 -61 -2 -143 -80
-313 -51 -423 71 -141 157 -86 412 110 509 42 20 65 24 140 24 82 0 97 -3 158
-33 37 -18 72 -30 77 -27 18 11 -5 30 -73 61 -89 40 -209 45 -288 11z"/>


</g>
</svg>
