<svg xmlns="http://www.w3.org/2000/svg" id="Capa_1" height="512" viewBox="0 0 512 512" width="512"><g id="XMLID_260_"><path id="XMLID_330_" d="m247.965 364h86.07v84h-86.07z" fill="#003B8A"></path><path id="XMLID_354_" d="m291 364h43.035v84h-43.035z" fill="#003B8A"></path><g id="XMLID_303_"><path id="XMLID_304_" d="m216.452 436h148.5v30h-148.5z" fill="#eD2420"></path></g><g id="XMLID_368_"><g><path id="XMLID_159_" d="m291 436h73.952v30h-73.952z" fill="#ED2420"></path></g></g><g id="XMLID_171_"><path id="XMLID_331_" d="m70 46v270h442c0-14 0-261 0-270-6 0-431 0-442 0z" fill="#2b4c9f"></path><path id="XMLID_324_" d="m70 316v60h442c0-13 0-46 0-60-6 0-431 0-442 0z" fill="#ED2420"></path><path id="XMLID_323_" d="m482 286c-15 0-375 0-382 0 0-7 0-202 0-210h382z" fill="#54575F"></path><path id="XMLID_197_" d="m512 316c0-14 0-261 0-270 0 0-197 0-221 0v30h191v210h-191v30z" fill="#213b82"></path><g fill="#ED2420"><path id="XMLID_195_" d="m512 316c-9 0-211 0-221 0v60h221c0-13 0-46 0-60z"></path><path fill="#54575F" id="XMLID_194_" d="m482 76c-7 0-183 0-191 0v210h191c0-7 0-202 0-210z"></path></g></g><path id="XMLID_38_" d="m186 169v297h-186v-297z" fill="#2b4c9f"></path><path id="XMLID_28_" d="m186 169v297h-93v-297z" fill="#213b82"></path><path id="XMLID_259_" d="m30.035 226.105h125.93v179.895h-125.93z" fill="#54575F"></path><path id="XMLID_370_" d="m93 226.105h62.965v179.895h-62.965z" fill="#54575F"></path></g></svg>