<svg id="Capa_1" enable-background="new 0 0 512 512" height="512" viewBox="0 0 512 512" width="512" xmlns="http://www.w3.org/2000/svg" xmlns:xlink="http://www.w3.org/1999/xlink"><linearGradient id="SVGID_1_" gradientUnits="userSpaceOnUse" x1="256" x2="256" y1="512" y2="0"><stop offset="0" stop-color="#addcff"/><stop offset=".5028" stop-color="#eaf6ff"/><stop offset="1" stop-color="#eaf6ff"/></linearGradient><linearGradient id="SVGID_2_" gradientUnits="userSpaceOnUse" x1="256" x2="256" y1="398" y2="114"><stop offset="0" stop-color="#00c0ff"/><stop offset="1" stop-color="#5558ff"/></linearGradient><g><g><circle cx="256" cy="256" fill="url(#SVGID_1_)" r="256"/></g><g><g><g><path d="m353.706 220.5h-195.412v35.5h195.412zm-71.059 124.25h71.059v-35.5h-71.059zm-53.294-35.5h-71.059v35.5h71.059zm168.765-195.25h-168.765v26.625c0 4.906-3.973 8.875-8.882 8.875s-8.882-3.969-8.882-8.875v-26.625h-17.765v26.625c0 4.906-3.973 8.875-8.882 8.875-4.91 0-8.882-3.969-8.882-8.875v-26.625h-17.765v26.625c0 4.906-3.973 8.875-8.882 8.875s-8.882-3.969-8.882-8.875v-26.625h-26.647c-4.91 0-8.882 3.969-8.882 8.875v44.375h302v-44.375c-.002-4.906-3.975-8.875-8.884-8.875zm-293.118 275.125c0 4.906 3.973 8.875 8.882 8.875h284.235c4.91 0 8.882-3.969 8.882-8.875v-204.125h-301.999zm266.471-35.5c0 4.906-3.973 8.875-8.882 8.875h-88.824c-4.91 0-8.882-3.969-8.882-8.875v-53.25c0-4.906 3.973-8.875 8.882-8.875h88.824c4.91 0 8.882 3.969 8.882 8.875zm-230.942-142c0-4.906 3.973-8.875 8.882-8.875h213.177c4.91 0 8.882 3.969 8.882 8.875v53.25c0 4.906-3.973 8.875-8.882 8.875h-213.176c-4.91 0-8.882-3.969-8.882-8.875v-53.25zm0 88.75c0-4.906 3.973-8.875 8.882-8.875h88.824c4.91 0 8.882 3.969 8.882 8.875v53.25c0 4.906-3.973 8.875-8.882 8.875h-88.824c-4.91 0-8.882-3.969-8.882-8.875z" fill="url(#SVGID_2_)"/></g></g></g></g></svg>